<?xml version="1.0" encoding="UTF-8"?>
<svg width="40px" height="40px" viewBox="0 0 40 40" version="1.1" xmlns="http://www.w3.org/2000/svg" xmlns:xlink="http://www.w3.org/1999/xlink">
    <!-- Generator: Sketch 52.6 (67491) - http://www.bohemiancoding.com/sketch -->
    <title>social-twitter-oval-outline</title>
    <desc>Created with Sketch.</desc>
    <g id="design-desktop" stroke="none" stroke-width="1" fill="none" fill-rule="evenodd">
        <g id="06_blog-entry" transform="translate(-1371.000000, -846.000000)">
            <g id="social-twitter-oval-outline" transform="translate(1371.000000, 846.000000)">
                <circle id="Oval" stroke="#8A8C8B" cx="20" cy="20" r="19.5"></circle>
                <path class="t-social-logo" d="M16.1923891,29 C23.6229409,29 27.6871393,22.8438421 27.6871393,17.5052498 C27.6871393,17.3303947 27.6871393,17.1563273 27.6753248,16.9830475 C28.4659778,16.4111541 29.1484828,15.7030451 29.6908836,14.8918757 C28.9535617,15.2185882 28.1714006,15.4328462 27.3705099,15.5274974 C28.2138657,15.022609 28.8450605,14.2285072 29.1466276,13.292976 C28.3536029,13.7635529 27.4860135,14.095192 26.5812993,14.273582 C25.3290243,12.9420011 23.3391712,12.6160921 21.7275353,13.4786058 C20.1158994,14.3411195 19.2832868,16.1775531 19.6965787,17.9581401 C16.4482884,17.7952961 13.4218627,16.2610406 11.3704855,13.7372023 C10.2982167,15.5831397 10.8459108,17.9446396 12.6212504,19.1301415 C11.9783361,19.1110867 11.3494394,18.9376538 10.7876353,18.6244796 C10.7876353,18.6410199 10.7876353,18.6583479 10.7876353,18.6756759 C10.7881616,20.5987608 12.1437477,22.2551124 14.0287548,22.6359064 C13.4339874,22.7981121 12.8099526,22.8218232 12.2045913,22.7052183 C12.7338413,24.3509216 14.2505329,25.4783121 15.9789399,25.5107754 C14.5483854,26.6350713 12.7811873,27.2454066 10.9617028,27.2435732 C10.6402716,27.2429561 10.319153,27.2234944 10,27.1852882 C11.8475058,28.3708972 13.9971812,28.999777 16.1923891,28.9968495" id="social_twitter" fill="#8A8C8B"></path>
            </g>
        </g>
    </g>
</svg>