<?xml version="1.0" encoding="UTF-8"?>
<svg width="40px" height="40px" viewBox="0 0 40 40" version="1.1" xmlns="http://www.w3.org/2000/svg" xmlns:xlink="http://www.w3.org/1999/xlink">
    <!-- Generator: Sketch 52.6 (67491) - http://www.bohemiancoding.com/sketch -->
    <title>social-linkedin-oval-outline</title>
    <desc>Created with Sketch.</desc>
    <g id="design-desktop" stroke="none" stroke-width="1" fill="none" fill-rule="evenodd">
        <g id="06_blog-entry" transform="translate(-1371.000000, -906.000000)">
            <g id="social-linkedin-oval-outline" transform="translate(1371.000000, 906.000000)">
                <circle id="Oval" stroke="#8A8C8B" cx="20" cy="20" r="19.5"></circle>
                <path class="t-social-logo" d="M25.6342222,25.6337778 L23.2613333,25.6337778 L23.2613333,21.9204444 C23.2613333,21.0351111 23.2462222,19.896 22.0284444,19.896 C20.7933333,19.896 20.6048889,20.8608889 20.6048889,21.8573333 L20.6048889,25.6337778 L18.2346667,25.6337778 L18.2346667,17.9982222 L20.5093333,17.9982222 L20.5093333,19.0422222 L20.5422222,19.0422222 C20.8586667,18.4417778 21.6328889,17.8088889 22.7871111,17.8088889 C25.1902222,17.8088889 25.6342222,19.3897778 25.6342222,21.4462222 L25.6342222,25.6337778 Z M15.5591111,16.9551111 C14.7968889,16.9551111 14.1822222,16.3386667 14.1822222,15.5786667 C14.1822222,14.8191111 14.7968889,14.2026667 15.5591111,14.2026667 C16.3182222,14.2026667 16.9342222,14.8191111 16.9342222,15.5786667 C16.9342222,16.3386667 16.3182222,16.9551111 15.5591111,16.9551111 Z M14.3706667,25.6337778 L16.7462222,25.6337778 L16.7462222,17.9982222 L14.3706667,17.9982222 L14.3706667,25.6337778 Z M26.816,12 L13.18,12 C12.5288889,12 12,12.5164444 12,13.1537778 L12,26.8453333 C12,27.4826667 12.5288889,28 13.18,28 L26.816,28 C27.4684444,28 27.9995556,27.4826667 27.9995556,26.8453333 L27.9995556,13.1537778 C27.9995556,12.5164444 27.4684444,12 26.816,12 Z" id="social_linkedin" fill="#8A8C8B"></path>
            </g>
        </g>
    </g>
</svg>